<svg xmlns="http://www.w3.org/2000/svg" xmlns:xlink="http://www.w3.org/1999/xlink" width="50" zoomAndPan="magnify" viewBox="0 0 375 374.999991" height="50" preserveAspectRatio="xMidYMid meet" version="1.0"><defs><clipPath id="71da85084c"><path d="M 0.0820312 46.875 L 374.914062 46.875 L 374.914062 328.125 L 0.0820312 328.125 Z M 0.0820312 46.875 " clip-rule="nonzero"/></clipPath></defs><g clip-path="url(#71da85084c)"><path fill="#100f0d" d="M 93.746094 241.089844 C 88.269531 249.476562 83.046875 254.726562 74.953125 264.894531 C 71.53125 269.195312 62.515625 286.269531 56.785156 286.824219 C 53.785156 287.113281 46.796875 281.988281 43.628906 279.929688 C 30.300781 271.273438 20.097656 261.75 6.664062 255.5 C 7.035156 272.320312 14.121094 290.617188 23.578125 302.484375 C 28.429688 308.566406 39.253906 319.644531 46.761719 321.28125 C 55.933594 323.277344 69.433594 321.28125 81.21875 321.28125 C 152.039062 321.28125 222.304688 321.277344 291.71875 321.28125 C 303.636719 321.28125 317.589844 323.285156 326.804688 321.28125 C 331.867188 320.175781 337.441406 314.238281 341.839844 310.003906 C 355.59375 296.753906 366.652344 278.832031 366.898438 255.5 C 353.402344 261.855469 342.566406 271.855469 329.933594 279.929688 C 326.570312 282.085938 319.359375 287.34375 316.152344 286.824219 C 312.847656 286.285156 308.828125 278.4375 306.753906 275.546875 C 297.445312 262.53125 287.804688 252.332031 279.191406 241.089844 C 263.980469 256.996094 251.6875 275.816406 234.707031 289.957031 C 216.726562 276.195312 203.257812 257.921875 187.722656 241.714844 C 169.390625 255.960938 158.011719 277.160156 138.230469 289.957031 C 121.929688 275.136719 109.507812 256.445312 93.746094 241.089844 Z M 209.023438 74.441406 C 205.175781 78.285156 193.539062 94.273438 187.09375 93.863281 C 183.988281 93.664062 179.382812 87.402344 176.445312 84.464844 C 165.933594 73.953125 153.4375 61.878906 145.121094 53.765625 C 134.386719 64.714844 120.4375 79.074219 108.15625 91.355469 C 105.230469 94.28125 98.191406 102.335938 95 102.007812 C 92.285156 101.726562 85.464844 92.5625 83.722656 90.730469 C 71.816406 78.183594 61.457031 66.28125 49.265625 56.273438 C 27.828125 78.082031 8.09375 111.699219 6.039062 155.886719 C 4.613281 186.546875 14.582031 221.238281 24.832031 244.21875 C 28.453125 252.335938 32.175781 262.84375 36.738281 268.027344 C 41.738281 273.710938 50.996094 276.550781 56.785156 280.558594 C 64.125 267.96875 74.625 257.234375 83.722656 245.472656 C 85.914062 242.640625 89.914062 234.242188 93.746094 234.199219 C 96.929688 234.160156 104.164062 243.164062 106.277344 245.472656 C 118.433594 258.769531 127.542969 272.570312 140.109375 283.0625 C 155.582031 266.378906 170.324219 248.960938 187.09375 233.570312 C 203.320312 249.296875 218.179688 266.386719 233.457031 283.0625 C 251.089844 268.746094 261.476562 247.183594 280.441406 234.199219 C 293.699219 248.503906 305.648438 264.125 316.777344 280.558594 C 323.617188 275.863281 334.28125 272.273438 339.960938 265.523438 C 343.542969 261.257812 347.0625 252.300781 349.984375 245.472656 C 359.039062 224.324219 367.515625 197.445312 368.777344 172.175781 C 371.296875 121.617188 351.089844 78.375 324.296875 56.273438 C 314.097656 68.027344 302.347656 78.875 291.09375 90.730469 C 288.761719 93.183594 282.941406 102.023438 279.191406 102.007812 C 275.644531 101.988281 269.445312 93.515625 266.660156 90.730469 C 254.023438 78.089844 241.472656 66.460938 230.324219 54.394531 C 222.820312 60.515625 216.761719 66.703125 209.023438 74.441406 Z M 369.40625 247.980469 C 376.082031 267.632812 365.28125 290.910156 354.996094 304.992188 C 349.792969 312.109375 335.988281 325.730469 326.804688 326.917969 C 305.746094 329.636719 280.855469 326.917969 256.636719 326.917969 C 211.636719 326.917969 162 326.917969 116.300781 326.917969 C 92.378906 326.917969 67.890625 329.636719 46.761719 326.917969 C 34.246094 325.308594 19.554688 307.070312 12.929688 295.59375 C 5.574219 282.851562 -2.230469 263.203125 4.160156 247.980469 C 12.980469 250.226562 18.167969 256.105469 25.460938 259.882812 C 12.296875 229.800781 -4.035156 191.242188 1.027344 143.355469 C 4.226562 113.074219 16.558594 87.332031 32.351562 67.550781 C 36.136719 62.804688 44.773438 49.707031 49.265625 49.378906 C 53.617188 49.066406 58.574219 56.808594 61.796875 60.03125 C 73.726562 71.960938 85.351562 82.648438 95.628906 95.113281 C 112.589844 79.503906 127.632812 61.96875 145.121094 46.875 C 156.183594 55.449219 166.128906 66.003906 177.070312 76.945312 C 178.800781 78.675781 185.296875 87.519531 187.09375 87.597656 C 189.242188 87.691406 195.75 78.941406 197.746094 76.945312 C 208.089844 66.601562 218.59375 55.019531 230.324219 46.875 C 242.167969 56.707031 254.628906 70.558594 267.285156 83.210938 C 269.371094 85.300781 278.132812 95.109375 279.191406 95.113281 C 280.921875 95.125 288.667969 85.128906 290.46875 83.210938 C 298.550781 74.589844 304.132812 68.917969 313.019531 60.03125 C 316.105469 56.945312 321.246094 49.421875 324.925781 49.378906 C 329.5 49.328125 340.417969 63.496094 343.089844 66.921875 C 358.492188 86.640625 370.445312 113.058594 373.792969 141.476562 C 379.082031 186.445312 364.746094 228.105469 350.609375 257.378906 C 350.492188 257.882812 349.980469 258.003906 349.984375 258.628906 C 356.714844 255.335938 361.328125 249.925781 369.40625 247.980469 " fill-opacity="1" fill-rule="evenodd"/></g><path fill="#e1f2fb" d="M 206.515625 169.667969 C 204.414062 166.078125 204.507812 161.214844 200.878906 159.015625 C 196.878906 157.308594 197.488281 165.617188 199 168.414062 C 191.558594 175.015625 175.03125 170.808594 166.421875 170.292969 C 163.734375 175.511719 169.691406 176.3125 172.058594 178.4375 C 172.441406 183.625 171.574219 187.558594 171.433594 192.222656 C 154.484375 198.347656 159.71875 227.078125 176.445312 228.558594 C 200.410156 230.679688 203.988281 201.070312 204.636719 177.8125 C 206.597656 179.269531 209.074219 181.46875 211.527344 179.066406 C 212.890625 175.261719 208.316406 172.738281 206.515625 169.667969 Z M 263.527344 170.292969 C 267.320312 172.238281 269.640625 167.3125 271.671875 165.28125 C 273.9375 163.015625 278.539062 160.703125 277.9375 156.511719 C 271.175781 156.375 264.210938 164.378906 263.527344 170.292969 Z M 251.625 169.667969 C 252.328125 169.800781 252.601562 170.363281 252.875 170.921875 C 259.34375 168.410156 263.296875 163.382812 266.660156 157.765625 C 260.984375 154.027344 254.359375 164.332031 251.625 169.667969 Z M 209.648438 133.332031 C 203.285156 150.070312 214.027344 161.359375 222.804688 164.65625 C 241.429688 171.652344 261.726562 153.867188 254.128906 133.332031 C 250.523438 123.589844 240.734375 117.53125 227.816406 119.550781 C 218.003906 121.082031 211.894531 127.421875 209.648438 133.332031 Z M 119.433594 132.703125 C 111.859375 153.667969 132.800781 170.683594 151.382812 163.402344 C 156.085938 161.5625 162.144531 155.394531 163.914062 150.875 C 172.03125 130.15625 154.746094 116.828125 139.480469 118.296875 C 127.074219 119.488281 122.140625 125.214844 119.433594 132.703125 Z M 230.324219 54.394531 C 241.472656 66.457031 254.023438 78.089844 266.660156 90.730469 C 269.445312 93.515625 275.644531 101.988281 279.191406 102.007812 C 282.941406 102.023438 288.761719 93.183594 291.09375 90.730469 C 302.347656 78.875 314.097656 68.027344 324.296875 56.273438 C 351.089844 78.375 371.296875 121.617188 368.777344 172.175781 C 367.515625 197.445312 359.039062 224.324219 349.984375 245.472656 C 347.058594 252.300781 343.546875 261.257812 339.957031 265.523438 C 334.28125 272.273438 323.617188 275.863281 316.777344 280.558594 C 305.648438 264.125 293.699219 248.503906 280.441406 234.199219 C 261.476562 247.183594 251.085938 268.746094 233.457031 283.0625 C 218.179688 266.386719 203.320312 249.296875 187.09375 233.570312 C 170.324219 248.960938 155.582031 266.378906 140.109375 283.0625 C 127.542969 272.570312 118.433594 258.769531 106.277344 245.472656 C 104.164062 243.164062 96.929688 234.160156 93.746094 234.199219 C 89.914062 234.242188 85.914062 242.640625 83.722656 245.472656 C 74.625 257.234375 64.125 267.96875 56.785156 280.558594 C 50.996094 276.550781 41.738281 273.710938 36.738281 268.027344 C 32.175781 262.84375 28.453125 252.335938 24.832031 244.222656 C 14.582031 221.238281 4.613281 186.546875 6.039062 155.886719 C 8.09375 111.699219 27.828125 78.082031 49.265625 56.273438 C 61.457031 66.28125 71.816406 78.183594 83.722656 90.730469 C 85.464844 92.5625 92.285156 101.726562 95 102.007812 C 98.191406 102.339844 105.230469 94.28125 108.15625 91.355469 C 120.4375 79.074219 134.386719 64.714844 145.121094 53.765625 C 153.4375 61.878906 165.933594 73.957031 176.445312 84.464844 C 179.382812 87.402344 183.988281 93.664062 187.09375 93.863281 C 193.539062 94.273438 205.175781 78.285156 209.023438 74.441406 C 216.761719 66.703125 222.820312 60.515625 230.324219 54.394531 " fill-opacity="1" fill-rule="evenodd"/><path fill="#100f0d" d="M 123.191406 144.609375 C 126.050781 164.96875 161.3125 165.742188 160.78125 140.851562 C 160.53125 129.070312 151.070312 120.945312 138.226562 123.308594 C 127.546875 125.273438 121.664062 133.730469 123.191406 144.609375 Z M 139.480469 118.296875 C 154.742188 116.828125 172.027344 130.15625 163.914062 150.875 C 162.144531 155.394531 156.085938 161.5625 151.382812 163.402344 C 132.800781 170.683594 111.859375 153.667969 119.433594 132.707031 C 122.136719 125.214844 127.074219 119.488281 139.480469 118.296875 " fill-opacity="1" fill-rule="evenodd"/><path fill="#100f0d" d="M 212.78125 143.355469 C 213.699219 167.242188 251.410156 166.5625 250.996094 142.101562 C 250.820312 131.730469 243.007812 123.480469 231.574219 123.933594 C 220.285156 124.382812 212.335938 131.777344 212.78125 143.355469 Z M 227.816406 119.550781 C 240.734375 117.53125 250.523438 123.589844 254.128906 133.332031 C 261.726562 153.871094 241.429688 171.652344 222.804688 164.65625 C 214.027344 161.359375 203.285156 150.070312 209.648438 133.332031 C 211.894531 127.421875 218.003906 121.082031 227.816406 119.550781 " fill-opacity="1" fill-rule="evenodd"/><path fill="#fffffd" d="M 138.230469 157.136719 C 162.3125 161.707031 162.765625 120.84375 137.601562 127.066406 C 122.738281 130.742188 124.058594 154.449219 138.230469 157.136719 Z M 138.230469 123.308594 C 151.070312 120.945312 160.53125 129.066406 160.785156 140.847656 C 161.3125 165.742188 126.050781 164.96875 123.191406 144.609375 C 121.667969 133.730469 127.546875 125.273438 138.230469 123.308594 " fill-opacity="1" fill-rule="evenodd"/><path fill="#fffffd" d="M 235.335938 157.765625 C 249.464844 155.023438 250.890625 131.101562 235.960938 127.066406 C 209.195312 123.015625 212.546875 162.183594 235.335938 157.765625 Z M 231.574219 123.933594 C 243.007812 123.476562 250.820312 131.730469 250.996094 142.101562 C 251.410156 166.5625 213.699219 167.242188 212.78125 143.355469 C 212.335938 131.777344 220.285156 124.382812 231.574219 123.933594 " fill-opacity="1" fill-rule="evenodd"/><path fill="#151312" d="M 139.480469 135.835938 C 138.992188 131.1875 130.375 130.199219 131.335938 138.34375 C 134.445312 142.835938 139.929688 140.0625 139.480469 135.835938 Z M 137.601562 127.066406 C 162.765625 120.84375 162.3125 161.707031 138.230469 157.136719 C 124.058594 154.449219 122.738281 130.742188 137.601562 127.066406 " fill-opacity="1" fill-rule="evenodd"/><path fill="#151312" d="M 225.9375 141.476562 C 230.476562 140.726562 230.367188 131.222656 224.058594 133.332031 C 217.785156 135.429688 222.617188 142.023438 225.9375 141.476562 Z M 235.960938 127.066406 C 250.894531 131.101562 249.464844 155.023438 235.335938 157.761719 C 212.546875 162.183594 209.195312 123.011719 235.960938 127.066406 " fill-opacity="1" fill-rule="evenodd"/><path fill="#fffffd" d="M 131.335938 138.34375 C 130.375 130.199219 138.988281 131.191406 139.480469 135.835938 C 139.929688 140.0625 134.445312 142.835938 131.335938 138.34375 " fill-opacity="1" fill-rule="evenodd"/><path fill="#fffffd" d="M 224.058594 133.332031 C 230.367188 131.222656 230.476562 140.726562 225.9375 141.476562 C 222.617188 142.023438 217.785156 135.429688 224.058594 133.332031 " fill-opacity="1" fill-rule="evenodd"/><path fill="#100f0d" d="M 266.660156 157.765625 C 263.296875 163.382812 259.347656 168.410156 252.878906 170.921875 C 252.597656 170.363281 252.328125 169.800781 251.625 169.667969 C 254.355469 164.332031 260.984375 154.023438 266.660156 157.765625 " fill-opacity="1" fill-rule="evenodd"/><path fill="#100f0d" d="M 277.9375 156.511719 C 278.539062 160.703125 273.9375 163.015625 271.671875 165.28125 C 269.640625 167.3125 267.320312 172.238281 263.527344 170.296875 C 264.210938 164.378906 271.175781 156.375 277.9375 156.511719 " fill-opacity="1" fill-rule="evenodd"/><path fill="#151312" d="M 183.960938 199.742188 C 182.171875 203.214844 184.367188 209.9375 178.949219 210.390625 C 173.8125 207.082031 179.972656 198.449219 178.949219 195.355469 C 158.527344 196.15625 163.234375 227.257812 182.085938 223.546875 C 192.785156 221.4375 196.382812 205.097656 199 194.726562 C 191.878906 193.390625 186.5625 194.703125 183.960938 199.742188 Z M 178.949219 178.4375 C 179.332031 182.996094 178.472656 186.3125 178.324219 190.34375 C 184.761719 194.453125 189.164062 186.464844 197.746094 189.714844 C 198.746094 186.121094 198.277344 181.058594 198.371094 176.558594 C 193.042969 178.328125 186.367188 178.753906 178.949219 178.4375 Z M 211.527344 179.066406 C 209.074219 181.46875 206.597656 179.269531 204.636719 177.8125 C 203.988281 201.070312 200.410156 230.679688 176.445312 228.558594 C 159.71875 227.078125 154.488281 198.347656 171.433594 192.222656 C 171.574219 187.558594 172.441406 183.621094 172.058594 178.4375 C 169.691406 176.3125 163.734375 175.511719 166.421875 170.292969 C 175.03125 170.804688 191.558594 175.015625 199 168.414062 C 197.492188 165.613281 196.878906 157.308594 200.878906 159.015625 C 204.507812 161.214844 204.414062 166.078125 206.515625 169.667969 C 208.316406 172.738281 212.890625 175.261719 211.527344 179.066406 " fill-opacity="1" fill-rule="evenodd"/><path fill="#8f1e24" d="M 198.371094 176.5625 C 198.277344 181.058594 198.742188 186.121094 197.746094 189.714844 C 189.160156 186.46875 184.761719 194.453125 178.324219 190.34375 C 178.46875 186.3125 179.332031 182.996094 178.949219 178.441406 C 186.367188 178.753906 193.039062 178.328125 198.371094 176.5625 " fill-opacity="1" fill-rule="evenodd"/><path fill="#f68194" d="M 199 194.726562 C 196.382812 205.097656 192.785156 221.4375 182.082031 223.546875 C 163.234375 227.257812 158.53125 196.15625 178.949219 195.355469 C 179.972656 198.449219 173.8125 207.082031 178.949219 210.390625 C 184.367188 209.9375 182.171875 203.21875 183.960938 199.742188 C 186.558594 194.703125 191.878906 193.390625 199 194.726562 " fill-opacity="1" fill-rule="evenodd"/><path fill="#61aa54" d="M 138.230469 289.953125 C 158.011719 277.160156 169.390625 255.960938 187.722656 241.714844 C 203.257812 257.921875 216.726562 276.195312 234.710938 289.953125 C 251.683594 275.816406 263.980469 256.996094 279.191406 241.085938 C 287.808594 252.332031 297.441406 262.53125 306.753906 275.546875 C 308.828125 278.4375 312.847656 286.285156 316.15625 286.824219 C 319.359375 287.34375 326.570312 282.082031 329.9375 279.929688 C 342.566406 271.855469 353.402344 261.855469 366.898438 255.5 C 366.65625 278.832031 355.59375 296.753906 341.839844 310.003906 C 337.441406 314.238281 331.867188 320.175781 326.804688 321.28125 C 317.59375 323.285156 303.632812 321.28125 291.71875 321.28125 C 222.304688 321.277344 152.039062 321.28125 81.21875 321.28125 C 69.433594 321.28125 55.933594 323.277344 46.761719 321.28125 C 39.253906 319.644531 28.429688 308.566406 23.578125 302.484375 C 14.121094 290.617188 7.035156 272.320312 6.664062 255.5 C 20.097656 261.75 30.300781 271.273438 43.628906 279.929688 C 46.796875 281.988281 53.785156 287.113281 56.785156 286.824219 C 62.515625 286.269531 71.53125 269.195312 74.953125 264.894531 C 83.046875 254.726562 88.269531 249.476562 93.746094 241.085938 C 109.507812 256.445312 121.929688 275.136719 138.230469 289.953125 " fill-opacity="1" fill-rule="evenodd"/></svg>